<?xml version="1.0"?>

<svg xmlns="http://www.w3.org/2000/svg" xmlns:xlink="http://www.w3.org/1999/xlink" version="1.1" viewBox="0 0 224 224" width="50px" height="50px">

<g fill="none" fill-rule="nonzero" stroke="none" stroke-width="1" stroke-linecap="butt" stroke-linejoin="miter" stroke-miterlimit="10" stroke-dasharray="" stroke-dashoffset="0" font-family="none" font-weight="none" font-size="none" text-anchor="none" style="mix-blend-mode: normal">

<path d="M0,224v-224h224v224z" fill="none"/>

<g fill="#cccccc">

<path d="M112,13.44c-54.3424,0 -98.56,44.2176 -98.56,98.56c0,54.3424 44.2176,98.56 98.56,98.56c54.3424,0 98.56,-44.2176 98.56,-98.56c0,-54.3424 -44.2176,-98.56 -98.56,-98.56zM151.0208,144.6592c1.7472,1.7472 1.7472,4.6144 0,6.3616c-0.896,0.8512 -2.016,1.2992 -3.1808,1.2992c-1.1648,0 -2.2848,-0.448 -3.1808,-1.2992l-32.6592,-32.6592l-32.6592,32.6592c-0.896,0.8512 -2.016,1.2992 -3.1808,1.2992c-1.1648,0 -2.2848,-0.448 -3.1808,-1.2992c-1.7472,-1.7472 -1.7472,-4.6144 0,-6.3616l32.6592,-32.6592l-32.6592,-32.6592c-1.7472,-1.7472 -1.7472,-4.6144 0,-6.3616c1.7472,-1.7472 4.6144,-1.7472 6.3616,0l32.6592,32.6592l32.6592,-32.6592c1.7472,-1.7472 4.6144,-1.7472 6.3616,0c1.7472,1.7472 1.7472,4.6144 0,6.3616l-32.6592,32.6592z"/>

</g>

</g>

</svg>
