<?xml version="1.0"?>
<svg xmlns="http://www.w3.org/2000/svg" xmlns:xlink="http://www.w3.org/1999/xlink" version="1.1" viewBox="0 0 224 224" width="50px" height="50px"><g fill="none" fill-rule="nonzero" stroke="none" stroke-width="1" stroke-linecap="butt" stroke-linejoin="miter" stroke-miterlimit="10" stroke-dasharray="" stroke-dashoffset="0" font-family="none" font-weight="none" font-size="none" text-anchor="none" style="mix-blend-mode: normal"><path d="M0,224v-224h224v224z" fill="none"/><g id="original-icon" fill="#fff"><path d="M112,8.96c-56.81536,0 -103.04,46.22464 -103.04,103.04c0,56.81536 46.22464,103.04 103.04,103.04c56.81536,0 103.04,-46.22464 103.04,-103.04c0,-56.81536 -46.22464,-103.04 -103.04,-103.04zM120.05056,165.4688c0,0.96768 -0.64512,1.60384 -1.60384,1.60384h-12.21248c-0.97216,0 -1.60832,-0.64064 -1.60832,-1.60384v-13.81632c0,-0.9632 0.64064,-1.60384 1.60832,-1.60384h12.21248c0.9632,0 1.60384,0.64512 1.60384,1.60384zM134.18496,104.24064l-10.76544,14.784c-3.21216,4.33664 -4.17984,6.5856 -4.17984,12.04672v5.13856c0,0.9632 -0.64064,1.60384 -1.60384,1.60384h-10.60416c-0.9632,0.01792 -1.60384,-0.6272 -1.60384,-1.5904v-6.5856c0,-6.43328 1.44256,-9.80224 4.816,-14.46592l10.76992,-14.784c5.61792,-7.71008 7.54432,-11.40608 7.54432,-16.87168c0,-9.15712 -6.42432,-14.9408 -15.58592,-14.9408c-8.99584,0 -14.77952,5.46112 -16.70592,15.26336c-0.16128,0.9632 -0.80192,1.44704 -1.7696,1.28576l-10.12032,-1.7696c-0.96768,-0.16128 -1.44704,-0.80192 -1.29024,-1.7696c2.41472,-15.42464 13.50272,-25.54944 30.21312,-25.54944c17.34656,0 29.0752,11.40608 29.0752,27.31456c0,7.71456 -2.72384,13.33696 -8.18944,20.89024z"/></g></g></svg>
